<?xml version="1.0" encoding="UTF-8" standalone="no"?>
<svg
   version="1.2"
   viewBox="0 0 600 400"
   width="600"
   height="400"
   id="svg7"
   sodipodi:docname="placeholder.svg"
   inkscape:version="1.3.2 (091e20ef0f, 2023-11-25)"
   xmlns:inkscape="http://www.inkscape.org/namespaces/inkscape"
   xmlns:sodipodi="http://sodipodi.sourceforge.net/DTD/sodipodi-0.dtd"
   xmlns="http://www.w3.org/2000/svg"
   xmlns:svg="http://www.w3.org/2000/svg"
   xmlns:rdf="http://www.w3.org/1999/02/22-rdf-syntax-ns#"
   xmlns:cc="http://creativecommons.org/ns#"
   xmlns:dc="http://purl.org/dc/elements/1.1/">
  <defs
     id="defs7" />
  <sodipodi:namedview
     id="namedview7"
     pagecolor="#505050"
     bordercolor="#ffffff"
     borderopacity="1"
     inkscape:showpageshadow="0"
     inkscape:pageopacity="0"
     inkscape:pagecheckerboard="1"
     inkscape:deskcolor="#505050"
     inkscape:zoom="1.3814617"
     inkscape:cx="264.93677"
     inkscape:cy="225.48581"
     inkscape:window-width="1920"
     inkscape:window-height="1003"
     inkscape:window-x="0"
     inkscape:window-y="0"
     inkscape:window-maximized="1"
     inkscape:current-layer="svg7" />
  <title
     id="title1">27002-ai</title>
  <style
     id="style1">
		.s0 { fill: #ffffff } 
		.s1 { fill: #f0ede2 } 
		.s2 { fill: #dddbd0 } 
		.s3 { fill: #6da1a1 } 
		.s4 { fill: #588281 } 
		.s5 { fill: #e6ba59 } 
		.s6 { fill: #c7a24f } 
		.s7 { fill: #4e4f51 } 
		.s8 { fill: #404042 } 
	</style>
  <g
     id="_Artboards_" />
  <g
     id="BG"
     style="display:inline"
     transform="matrix(-0.5956262,0,0,0.43416788,628.4652,-40.928094)">
    <path
       id="&lt;Path&gt;"
       class="s0"
       d="M 1122,1122 H 0 V 0 h 1122 z"
       style="fill:#ffffff;fill-opacity:1" />
  </g>
  <g
     id="Object"
     transform="matrix(0.5802421,0,0,0.5802421,-24.915379,-134.24676)">
    <g
       id="g7"
       transform="translate(-47.045626,15.331007)">
      <path
         id="&lt;Compound Path&gt;"
         class="s1"
         d="M 829.5,332.3 H 560.6 291.7 c -17,0 -30.7,13.7 -30.7,30.7 v 392.7 c 0,17 13.7,30.7 30.7,30.7 h 268.9 268.9 c 16.9,0 30.7,-13.7 30.7,-30.7 V 363 c 0,-17 -13.8,-30.7 -30.7,-30.7 z"
         style="fill:#2d3748;fill-opacity:1" />
      <g
         id="&lt;Group&gt;">
        <path
           id="path1"
           class="s2"
           d="m 807.8,768.3 c 15.5,0 28.1,-12.6 28.1,-28.1 V 380.3 c 0,-15.5 -12.6,-28.1 -28.1,-28.1 H 561.4 v 416.1 z"
           style="fill:#1a202c;fill-opacity:1" />
      </g>
      <path
         id="path2"
         class="s3"
         d="m 549.3,675.8 -61.4,-72.6 c -7.9,-9.4 -27.7,-9.4 -35.6,0 L 270.6,748.4 c -7.9,9.4 2,21.1 17.8,21.1 h 181.7 76 16.1 v -78.4 z"
         style="fill:#955a74;fill-opacity:1" />
      <path
         id="path3"
         class="s4"
         d="m 853,740.2 -111.6,-202 c -11,-13 -38.5,-13 -49.5,0 l -85.3,101 -44.1,52.2 -0.3,-0.3 v 78.4 h 0.3 30.3 123.9 114.8 c 22.1,0 32.6,-16.3 21.5,-29.3 z"
         style="fill:#785276;fill-opacity:1" />
      <g
         id="g5">
        <path
           id="path4"
           class="s5"
           d="m 379.4,504.4 c 0,23.5 19.1,42.6 42.6,42.6 v -85.1 c -23.5,0 -42.6,19 -42.6,42.5 z"
           style="fill:#c7dd60;fill-opacity:1" />
        <path
           id="path5"
           class="s6"
           d="M 422,461.9 V 547 c 23.5,0 42.5,-19.1 42.5,-42.6 0,-23.5 -19,-42.5 -42.5,-42.5 z"
           style="fill:#8ac06b;fill-opacity:1" />
      </g>
      <path
         id="path6"
         class="s7"
         d="m 315,768.3 c -15.5,0 -28.1,-12.6 -28.1,-28.1 V 380.3 c 0,-15.5 12.6,-28.1 28.1,-28.1 H 561.4 V 335.6 H 292.5 c -16.9,0 -30.7,13.7 -30.7,30.7 V 759 c 0,17 13.8,30.7 30.7,30.7 h 268.9 v -21.4 z"
         style="fill:#38324c;fill-opacity:1" />
      <path
         id="path7"
         class="s8"
         d="M 830.3,335.6 H 561.4 v 16.6 h 246.4 c 15.5,0 28.1,12.6 28.1,28.1 v 359.9 c 0,15.5 -12.6,28.1 -28.1,28.1 H 561.4 v 21.4 h 268.9 c 17,0 30.7,-13.7 30.7,-30.7 V 366.3 c 0,-17 -13.7,-30.7 -30.7,-30.7 z"
         style="fill:#38324c;fill-opacity:1" />
    </g>
  </g>
  <metadata
     id="metadata7">
    <rdf:RDF>
      <cc:Work
         rdf:about="">
        <dc:title>27002-ai</dc:title>
      </cc:Work>
    </rdf:RDF>
  </metadata>
</svg>
